<svg xmlns="http://www.w3.org/2000/svg" xmlns:xlink="http://www.w3.org/1999/xlink" width="752" zoomAndPan="magnify" viewBox="0 0 564 137.249994" height="183" preserveAspectRatio="xMidYMid meet" version="1.0"><defs><g/><clipPath id="1987e1b16a"><path d="M 30.25 0 L 154.820312 0 L 154.820312 136.503906 L 30.25 136.503906 Z M 30.25 0 " clip-rule="nonzero"/></clipPath></defs><g clip-path="url(#1987e1b16a)"><path fill="#000000" d="M 31.8125 136.460938 L 33.304688 136.460938 L 33.304688 77.855469 L 57.246094 66.457031 L 57.246094 136.460938 L 73.949219 136.460938 L 73.949219 55.1875 L 60.242188 61.714844 L 60.242188 4.917969 L 97.894531 24.746094 L 97.894531 54.421875 L 84.179688 63.824219 L 84.179688 136.460938 L 100.886719 136.460938 L 100.886719 56.003906 L 124.828125 39.597656 L 124.828125 73.277344 L 111.117188 67.640625 L 111.117188 136.460938 L 127.824219 136.460938 L 127.824219 77.746094 L 151.761719 87.589844 L 151.761719 136.460938 L 154.753906 136.460938 L 154.753906 85.585938 L 127.824219 74.511719 L 127.824219 33.921875 L 100.886719 52.371094 L 100.886719 22.941406 L 57.246094 -0.0390625 L 57.246094 63.140625 L 30.3125 75.960938 L 30.3125 136.460938 Z M 124.828125 76.511719 L 124.828125 133.457031 L 114.109375 133.457031 L 114.109375 72.105469 Z M 97.894531 58.054688 L 97.894531 133.457031 L 87.171875 133.457031 L 87.171875 65.398438 Z M 60.242188 65.03125 L 70.957031 59.929688 L 70.957031 133.457031 L 60.242188 133.457031 L 60.242188 65.03125 " fill-opacity="1" fill-rule="evenodd"/></g><g fill="#000000" fill-opacity="1"><g transform="translate(254.652046, 88.26476)"><g><path d="M 24.796875 -8.84375 L 24.796875 0 L 18.578125 0 C 18.578125 4.257812 17.617188 7.484375 15.703125 9.671875 C 13.796875 11.867188 11.070312 12.96875 7.53125 12.96875 C 5.175781 12.96875 2.664062 12.523438 0 11.640625 L 1.734375 3.875 C 3.566406 4.320312 5 4.546875 6.03125 4.546875 C 7.269531 4.546875 8.164062 4.207031 8.71875 3.53125 C 9.28125 2.851562 9.5625 1.675781 9.5625 0 L 9.5625 -28.671875 L 18.578125 -28.671875 L 18.578125 -8.84375 Z M 24.796875 -8.84375 "/></g></g></g><g fill="#000000" fill-opacity="1"><g transform="translate(281.23332, 88.26476)"><g><path d="M 7.46875 -28.671875 L 16.484375 -28.671875 L 16.484375 0 L 0 0 C -1.351562 0 -2.488281 -0.4375 -3.40625 -1.3125 C -4.320312 -2.1875 -4.78125 -3.265625 -4.78125 -4.546875 C -4.78125 -5.816406 -4.34375 -6.847656 -3.46875 -7.640625 C -2.59375 -8.441406 -1.4375 -8.84375 0 -8.84375 L 7.46875 -8.84375 Z M 5.90625 15.40625 C 4.507812 15.40625 3.3125 14.90625 2.3125 13.90625 C 1.320312 12.914062 0.828125 11.726562 0.828125 10.34375 C 0.828125 8.945312 1.320312 7.75 2.3125 6.75 C 3.3125 5.757812 4.507812 5.265625 5.90625 5.265625 C 7.300781 5.265625 8.492188 5.757812 9.484375 6.75 C 10.484375 7.75 10.984375 8.945312 10.984375 10.34375 C 10.984375 11.726562 10.484375 12.914062 9.484375 13.90625 C 8.492188 14.90625 7.300781 15.40625 5.90625 15.40625 Z M 17.796875 15.40625 C 16.398438 15.40625 15.203125 14.90625 14.203125 13.90625 C 13.210938 12.914062 12.71875 11.726562 12.71875 10.34375 C 12.71875 8.945312 13.210938 7.75 14.203125 6.75 C 15.203125 5.757812 16.398438 5.265625 17.796875 5.265625 C 19.191406 5.265625 20.382812 5.757812 21.375 6.75 C 22.375 7.75 22.875 8.945312 22.875 10.34375 C 22.875 11.726562 22.375 12.914062 21.375 13.90625 C 20.382812 14.90625 19.191406 15.40625 17.796875 15.40625 Z M 17.796875 15.40625 "/></g></g></g><g fill="#000000" fill-opacity="1"><g transform="translate(307.097808, 88.26476)"><g><path d="M 39.421875 -8.84375 L 39.421875 0 L 3.171875 0 L 3.171875 -8.84375 L 24.375 -8.84375 L 24.375 -12.25 C 24.375 -15.15625 23.914062 -17.429688 23 -19.078125 C 22.082031 -20.734375 20.644531 -21.929688 18.6875 -22.671875 C 16.738281 -23.410156 14.132812 -23.78125 10.875 -23.78125 L 6.515625 -23.78125 L 6.515625 -32.796875 L 10.984375 -32.796875 C 17.953125 -32.796875 23.425781 -31.039062 27.40625 -27.53125 C 31.394531 -24.03125 33.390625 -18.9375 33.390625 -12.25 L 33.390625 -8.84375 Z M 39.421875 -8.84375 "/></g></g></g><g fill="#000000" fill-opacity="1"><g transform="translate(348.313465, 88.26476)"><g><path d="M 40.671875 -8.84375 L 40.671875 0 L 0 0 C -1.394531 0 -2.539062 -0.40625 -3.4375 -1.21875 C -4.332031 -2.039062 -4.78125 -3.085938 -4.78125 -4.359375 C -4.78125 -5.710938 -4.34375 -6.796875 -3.46875 -7.609375 C -2.59375 -8.429688 -1.4375 -8.84375 0 -8.84375 L 4.484375 -8.84375 C 3.328125 -11.03125 2.75 -13.476562 2.75 -16.1875 C 2.75 -19.132812 3.453125 -21.863281 4.859375 -24.375 C 6.273438 -26.882812 8.515625 -28.914062 11.578125 -30.46875 C 14.648438 -32.019531 18.578125 -32.796875 23.359375 -32.796875 L 35.609375 -32.796875 L 35.609375 -8.84375 Z M 26.515625 -23.78125 L 23.234375 -23.78125 C 19.097656 -23.78125 16.128906 -23.0625 14.328125 -21.625 C 12.535156 -20.1875 11.640625 -18.394531 11.640625 -16.25 C 11.640625 -14.09375 12.535156 -12.316406 14.328125 -10.921875 C 16.128906 -9.535156 19.140625 -8.84375 23.359375 -8.84375 L 26.515625 -8.84375 Z M 13.921875 -36.921875 C 12.523438 -36.921875 11.328125 -37.414062 10.328125 -38.40625 C 9.335938 -39.40625 8.84375 -40.597656 8.84375 -41.984375 C 8.84375 -43.378906 9.335938 -44.570312 10.328125 -45.5625 C 11.328125 -46.5625 12.523438 -47.0625 13.921875 -47.0625 C 15.316406 -47.0625 16.507812 -46.5625 17.5 -45.5625 C 18.5 -44.570312 19 -43.378906 19 -41.984375 C 19 -40.597656 18.5 -39.40625 17.5 -38.40625 C 16.507812 -37.414062 15.316406 -36.921875 13.921875 -36.921875 Z M 25.796875 -36.921875 C 24.398438 -36.921875 23.203125 -37.414062 22.203125 -38.40625 C 21.210938 -39.40625 20.71875 -40.597656 20.71875 -41.984375 C 20.71875 -43.378906 21.210938 -44.570312 22.203125 -45.5625 C 23.203125 -46.5625 24.398438 -47.0625 25.796875 -47.0625 C 27.191406 -47.0625 28.382812 -46.5625 29.375 -45.5625 C 30.375 -44.570312 30.875 -43.378906 30.875 -41.984375 C 30.875 -40.597656 30.375 -39.40625 29.375 -38.40625 C 28.382812 -37.414062 27.191406 -36.921875 25.796875 -36.921875 Z M 25.796875 -36.921875 "/></g></g></g><g fill="#000000" fill-opacity="1"><g transform="translate(390.783502, 88.26476)"><g><path d="M 7.46875 -28.671875 L 16.484375 -28.671875 L 16.484375 0 L 0 0 C -1.351562 0 -2.488281 -0.4375 -3.40625 -1.3125 C -4.320312 -2.1875 -4.78125 -3.265625 -4.78125 -4.546875 C -4.78125 -5.816406 -4.34375 -6.847656 -3.46875 -7.640625 C -2.59375 -8.441406 -1.4375 -8.84375 0 -8.84375 L 7.46875 -8.84375 Z M 5.90625 -34.0625 C 4.507812 -34.0625 3.3125 -34.554688 2.3125 -35.546875 C 1.320312 -36.546875 0.828125 -37.738281 0.828125 -39.125 C 0.828125 -40.519531 1.320312 -41.710938 2.3125 -42.703125 C 3.3125 -43.703125 4.507812 -44.203125 5.90625 -44.203125 C 7.300781 -44.203125 8.492188 -43.703125 9.484375 -42.703125 C 10.484375 -41.710938 10.984375 -40.519531 10.984375 -39.125 C 10.984375 -37.738281 10.484375 -36.546875 9.484375 -35.546875 C 8.492188 -34.554688 7.300781 -34.0625 5.90625 -34.0625 Z M 17.796875 -34.0625 C 16.398438 -34.0625 15.203125 -34.554688 14.203125 -35.546875 C 13.210938 -36.546875 12.71875 -37.738281 12.71875 -39.125 C 12.71875 -40.519531 13.210938 -41.710938 14.203125 -42.703125 C 15.203125 -43.703125 16.398438 -44.203125 17.796875 -44.203125 C 19.191406 -44.203125 20.382812 -43.703125 21.375 -42.703125 C 22.375 -41.710938 22.875 -40.519531 22.875 -39.125 C 22.875 -37.738281 22.375 -36.546875 21.375 -35.546875 C 20.382812 -34.554688 19.191406 -34.0625 17.796875 -34.0625 Z M 17.796875 -34.0625 "/></g></g></g></svg>