<?xml version="1.0" standalone="no"?>
<!DOCTYPE svg PUBLIC "-//W3C//DTD SVG 20010904//EN"
 "http://www.w3.org/TR/2001/REC-SVG-20010904/DTD/svg10.dtd">
<svg version="1.0" xmlns="http://www.w3.org/2000/svg"
 width="752.000000pt" height="183.000000pt" viewBox="0 0 752.000000 183.000000"
 preserveAspectRatio="xMidYMid meet">

<g transform="translate(0.000000,183.000000) scale(0.100000,-0.100000)"
fill="#000000" stroke="none">
<path d="M105 1816 c-41 -18 -83 -69 -90 -109 -3 -18 -5 -386 -3 -819 3 -782
3 -787 24 -815 12 -15 36 -37 55 -48 33 -19 52 -20 629 -20 577 0 596 1 629
20 46 27 71 64 78 112 5 36 2 43 -21 58 -24 16 -28 16 -50 2 -13 -9 -26 -30
-29 -46 -5 -22 -15 -35 -33 -41 -18 -7 -227 -10 -591 -8 -546 3 -565 4 -579
22 -12 17 -14 142 -14 796 0 740 1 778 18 793 17 15 73 17 594 17 544 0 576
-1 591 -18 16 -17 17 -80 17 -695 0 -601 2 -677 16 -691 20 -20 48 -20 68 0
15 14 16 86 14 709 -3 683 -3 694 -24 721 -11 15 -33 37 -48 48 -27 21 -39 21
-624 23 -481 2 -603 0 -627 -11z"/>
<path d="M212 1614 c-24 -17 -29 -53 -10 -72 7 -7 42 -12 88 -12 81 0 100 9
100 46 0 34 -37 54 -100 54 -34 0 -64 -6 -78 -16z"/>
<path d="M493 1618 c-28 -14 -35 -43 -15 -69 15 -18 26 -20 97 -17 77 3 80 4
90 32 8 24 6 31 -14 47 -26 21 -120 26 -158 7z"/>
<path d="M774 1620 c-28 -11 -36 -43 -17 -69 12 -18 25 -21 88 -21 99 0 133
32 85 80 -16 16 -33 20 -77 19 -32 0 -68 -4 -79 -9z"/>
<path d="M206 1434 c-13 -13 -16 -42 -16 -163 0 -101 4 -151 12 -159 17 -17
1019 -17 1036 0 8 8 12 58 12 159 0 121 -3 150 -16 163 -14 14 -74 16 -514 16
-440 0 -500 -2 -514 -16z m944 -159 l0 -75 -430 0 -430 0 0 75 0 75 430 0 430
0 0 -75z"/>
<path d="M3482 1377 c-28 -29 -28 -57 -1 -91 15 -19 30 -26 54 -26 36 0 75 36
75 70 0 10 -9 29 -21 44 -27 34 -77 36 -107 3z"/>
<path d="M3032 983 c3 -375 4 -411 22 -443 23 -44 73 -98 108 -116 32 -16 107
-18 160 -4 l37 11 -14 32 c-13 32 -14 32 -75 29 -58 -4 -62 -2 -93 31 -48 51
-57 93 -57 281 l0 166 85 0 85 0 0 40 0 40 -85 0 -85 0 0 170 0 170 -46 0 -45
0 3 -407z"/>
<path d="M5850 1015 c0 -232 4 -393 11 -425 12 -57 58 -123 108 -157 38 -25
108 -31 173 -13 35 10 36 11 26 44 l-11 34 -58 -5 c-71 -7 -99 8 -131 70 -19
38 -22 61 -26 225 l-4 182 86 0 86 0 0 40 0 40 -85 0 -85 0 0 170 0 170 -45 0
-45 0 0 -375z"/>
<path d="M1840 885 l0 -475 270 0 270 0 0 45 0 45 -225 0 -225 0 0 190 0 190
140 0 140 0 0 45 0 45 -140 0 -140 0 0 150 0 150 225 0 225 0 0 45 0 45 -270
0 -270 0 0 -475z"/>
<path d="M2656 1136 c-89 -33 -127 -85 -127 -171 0 -75 32 -129 103 -173 29
-19 81 -51 115 -72 52 -33 64 -45 74 -81 11 -37 11 -45 -7 -77 -42 -78 -137
-92 -221 -32 l-45 31 -29 -27 -29 -28 22 -23 c66 -71 202 -95 288 -50 70 35
103 85 108 161 7 106 -23 146 -174 234 -91 53 -124 91 -124 142 0 31 6 43 32
65 28 24 39 27 85 23 40 -4 62 -12 92 -36 l38 -31 29 30 29 31 -30 24 c-75 60
-164 84 -229 60z"/>
<path d="M5287 1140 c-106 -18 -216 -100 -265 -197 -46 -89 -49 -204 -10 -312
29 -77 124 -171 203 -200 125 -47 286 -12 369 79 l35 39 3 -72 3 -72 48 -3 47
-3 0 200 c0 274 -15 333 -108 433 -55 59 -116 92 -197 107 -64 12 -60 12 -128
1z m144 -96 c77 -23 152 -100 168 -173 25 -117 5 -196 -74 -288 -50 -58 -106
-83 -189 -83 -235 0 -347 298 -178 473 78 81 163 103 273 71z"/>
<path d="M6598 1140 c-246 -42 -380 -323 -260 -543 36 -68 120 -141 190 -167
85 -32 216 -26 296 15 73 37 149 120 177 195 29 76 29 194 -1 272 -42 113
-154 205 -274 227 -65 12 -61 12 -128 1z m141 -96 c111 -33 191 -143 191 -264
0 -120 -54 -216 -147 -261 -67 -32 -179 -32 -245 0 -110 53 -170 180 -147 308
12 63 27 91 78 146 75 81 162 103 270 71z"/>
<path d="M3981 1119 c-51 -15 -113 -62 -145 -108 -55 -79 -60 -106 -64 -363
l-4 -238 46 0 46 0 0 224 c0 236 6 274 51 337 44 62 160 90 228 55 41 -22 88
-80 100 -123 6 -21 11 -138 11 -265 l0 -228 44 0 44 0 5 213 c5 251 15 295 78
352 75 67 155 83 229 45 71 -36 75 -51 78 -348 l3 -262 45 0 44 0 0 245 c0
301 -6 334 -69 395 -67 65 -140 88 -235 71 -79 -13 -135 -46 -182 -108 l-32
-41 -30 47 c-56 86 -188 131 -291 100z"/>
<path d="M7354 1104 c-71 -37 -111 -80 -152 -163 l-37 -75 -3 -228 -3 -228 44
0 44 0 5 213 c5 201 7 217 30 268 44 96 112 156 164 146 18 -3 29 4 48 33 l25
37 -25 12 c-40 18 -87 13 -140 -15z"/>
<path d="M3490 760 l0 -350 45 0 45 0 0 350 0 350 -45 0 -45 0 0 -350z"/>
<path d="M213 1010 c-16 -7 -23 -18 -23 -38 0 -50 7 -52 236 -52 180 0 215 2
228 16 21 21 20 47 -2 67 -16 15 -46 17 -218 16 -109 0 -209 -4 -221 -9z"/>
<path d="M792 1004 c-26 -18 -28 -46 -6 -68 13 -14 48 -16 228 -16 151 0 215
3 224 12 18 18 15 53 -6 71 -27 24 -406 25 -440 1z"/>
<path d="M206 824 c-13 -12 -16 -39 -16 -123 0 -149 -13 -141 236 -141 256 0
244 -7 244 139 0 149 14 141 -243 141 -174 0 -208 -2 -221 -16z m362 -121 l-3
-38 -137 -3 -138 -3 0 41 0 40 141 0 140 0 -3 -37z"/>
<path d="M787 822 c-14 -15 -17 -40 -17 -120 0 -148 -10 -142 238 -142 255 0
242 -8 242 145 0 103 -2 115 -19 125 -12 6 -102 10 -224 10 -185 0 -205 -2
-220 -18z m363 -122 l0 -40 -140 0 -140 0 0 40 0 40 140 0 140 0 0 -40z"/>
<path d="M220 477 c-24 -12 -25 -16 -28 -127 -2 -99 0 -116 15 -127 12 -10 73
-13 224 -13 175 0 210 2 223 16 13 12 16 38 16 120 0 150 10 144 -232 144
-135 0 -200 -4 -218 -13z m350 -132 l0 -35 -140 0 -140 0 0 35 0 35 140 0 140
0 0 -35z"/>
<path d="M810 483 c-33 -12 -40 -36 -40 -138 0 -143 -14 -135 246 -135 150 0
213 3 222 12 8 8 12 50 12 124 0 151 12 144 -235 143 -104 0 -197 -3 -205 -6z
m340 -138 l0 -35 -140 0 -140 0 0 35 0 35 140 0 140 0 0 -35z"/>
</g>
</svg>
